<mxfile host="app.diagrams.net" modified="2024-03-18T07:31:50.568Z" agent="Mozilla/5.0 (Macintosh; Intel Mac OS X 10_15_7) AppleWebKit/537.36 (KHTML, like Gecko) Chrome/122.0.0.0 Safari/537.36" etag="CzY3foMe4hEoPvslko4A" version="24.0.6" type="github">
  <diagram name="第 1 页" id="Eg-VOLZd_sPCDUKH0cTg">
    <mxGraphModel dx="707" dy="401" grid="1" gridSize="10" guides="1" tooltips="1" connect="1" arrows="1" fold="1" page="1" pageScale="1" pageWidth="827" pageHeight="1169" math="0" shadow="0">
      <root>
        <mxCell id="0" />
        <mxCell id="1" parent="0" />
        <mxCell id="zwhW8Kd3Hd31xVbURi4L-1" value="物联网设备" style="rounded=0;whiteSpace=wrap;html=1;" vertex="1" parent="1">
          <mxGeometry x="280" y="10" width="430" height="60" as="geometry" />
        </mxCell>
        <mxCell id="zwhW8Kd3Hd31xVbURi4L-4" value="数据网关" style="rounded=0;whiteSpace=wrap;html=1;" vertex="1" parent="1">
          <mxGeometry x="435" y="100" width="275" height="60" as="geometry" />
        </mxCell>
        <mxCell id="zwhW8Kd3Hd31xVbURi4L-3" value="区块链" style="rounded=0;whiteSpace=wrap;html=1;align=left;" vertex="1" parent="1">
          <mxGeometry x="280" y="100" width="120" height="220" as="geometry" />
        </mxCell>
        <mxCell id="zwhW8Kd3Hd31xVbURi4L-7" value="" style="rounded=0;whiteSpace=wrap;html=1;" vertex="1" parent="1">
          <mxGeometry x="435" y="180" width="285" height="140" as="geometry" />
        </mxCell>
        <mxCell id="zwhW8Kd3Hd31xVbURi4L-8" value="" style="endArrow=none;dashed=1;html=1;dashPattern=1 3;strokeWidth=2;rounded=0;" edge="1" parent="1">
          <mxGeometry width="50" height="50" relative="1" as="geometry">
            <mxPoint x="235" y="86" as="sourcePoint" />
            <mxPoint x="755" y="86" as="targetPoint" />
            <Array as="points" />
          </mxGeometry>
        </mxCell>
        <mxCell id="zwhW8Kd3Hd31xVbURi4L-12" value="存储设备" style="rounded=0;whiteSpace=wrap;html=1;" vertex="1" parent="1">
          <mxGeometry x="457.5" y="230" width="90" height="30" as="geometry" />
        </mxCell>
        <mxCell id="zwhW8Kd3Hd31xVbURi4L-13" value="存储设备" style="rounded=0;whiteSpace=wrap;html=1;" vertex="1" parent="1">
          <mxGeometry x="597.5" y="230" width="90" height="30" as="geometry" />
        </mxCell>
        <mxCell id="zwhW8Kd3Hd31xVbURi4L-14" value="存储设备" style="rounded=0;whiteSpace=wrap;html=1;" vertex="1" parent="1">
          <mxGeometry x="457.5" y="280" width="90" height="30" as="geometry" />
        </mxCell>
        <mxCell id="zwhW8Kd3Hd31xVbURi4L-15" value="存储设备" style="rounded=0;whiteSpace=wrap;html=1;" vertex="1" parent="1">
          <mxGeometry x="597.5" y="280" width="90" height="30" as="geometry" />
        </mxCell>
        <mxCell id="zwhW8Kd3Hd31xVbURi4L-16" value="智能合约" style="rounded=0;whiteSpace=wrap;html=1;" vertex="1" parent="1">
          <mxGeometry x="330" y="190" width="70" height="40" as="geometry" />
        </mxCell>
        <mxCell id="zwhW8Kd3Hd31xVbURi4L-18" value="" style="endArrow=classic;html=1;rounded=0;exitX=0.213;exitY=1.02;exitDx=0;exitDy=0;exitPerimeter=0;" edge="1" parent="1" source="zwhW8Kd3Hd31xVbURi4L-1">
          <mxGeometry width="50" height="50" relative="1" as="geometry">
            <mxPoint x="320" y="240" as="sourcePoint" />
            <mxPoint x="370" y="190" as="targetPoint" />
          </mxGeometry>
        </mxCell>
        <mxCell id="zwhW8Kd3Hd31xVbURi4L-21" value="" style="endArrow=classic;html=1;rounded=0;exitX=0.651;exitY=1.052;exitDx=0;exitDy=0;exitPerimeter=0;entryX=0.451;entryY=0.028;entryDx=0;entryDy=0;entryPerimeter=0;" edge="1" parent="1" source="zwhW8Kd3Hd31xVbURi4L-1" target="zwhW8Kd3Hd31xVbURi4L-4">
          <mxGeometry width="50" height="50" relative="1" as="geometry">
            <mxPoint x="382" y="81" as="sourcePoint" />
            <mxPoint x="380" y="200" as="targetPoint" />
          </mxGeometry>
        </mxCell>
        <mxCell id="zwhW8Kd3Hd31xVbURi4L-22" value="" style="endArrow=classic;html=1;rounded=0;exitX=0.002;exitY=0.215;exitDx=0;exitDy=0;entryX=1;entryY=0.5;entryDx=0;entryDy=0;exitPerimeter=0;" edge="1" parent="1" source="zwhW8Kd3Hd31xVbURi4L-7" target="zwhW8Kd3Hd31xVbURi4L-16">
          <mxGeometry width="50" height="50" relative="1" as="geometry">
            <mxPoint x="500" y="180" as="sourcePoint" />
            <mxPoint x="550" y="130" as="targetPoint" />
          </mxGeometry>
        </mxCell>
        <mxCell id="zwhW8Kd3Hd31xVbURi4L-11" value="" style="shape=flexArrow;endArrow=classic;startArrow=classic;html=1;rounded=0;" edge="1" parent="1">
          <mxGeometry width="100" height="100" relative="1" as="geometry">
            <mxPoint x="520" y="210" as="sourcePoint" />
            <mxPoint x="520" y="130" as="targetPoint" />
          </mxGeometry>
        </mxCell>
      </root>
    </mxGraphModel>
  </diagram>
</mxfile>
